# xmcd
#
# Track frame offsets:
#	150
#	28341
#	57501
#	73271
#	95906
#	115994
#	124592
#	148843
#	163789
#	185093
#	202547
#	220462
#
# Disc length: 3193 seconds
# Revision: 0
# Processed by: cddbd v1.5.2PL0 Copyright (c) Steve Scherf et al.
# Submitted via: dBpowerAMP V12.0
#
DISCID=c30c770c
DTITLE=Devil - Gather the Sinners
DYEAR=2013
DGENRE=Pop/Rock
TTITLE0=Southern Sun
TTITLE1=Beyond the Gate
TTITLE2=They Pale
TTITLE3=Legacy
TTITLE4=Restless Wanderer
TTITLE5=Ladies of the Night
TTITLE6=Darkest Day
TTITLE7=Mother Shipton pt I
TTITLE8=Mother Shipton pt II
TTITLE9=Demons on Wheels
TTITLE10=Coffin Regatta
TTITLE11=[Untitled]
EXTD=
EXTT0=
EXTT1=
EXTT2=
EXTT3=
EXTT4=
EXTT5=
EXTT6=
EXTT7=
EXTT8=
EXTT9=
EXTT10=
EXTT11=
PLAYORDER=
